<svg xmlns="http://www.w3.org/2000/svg" viewBox="0 0 277.68 277.68"><g id="Calque_2" data-name="Calque 2"><g id="Calque_1-2" data-name="Calque 1"><rect x="0.5" y="0.5" width="276.68" height="276.68" rx="12.3" fill="#1d70b7" stroke="#1d1d1b" stroke-miterlimit="10"/><rect x="10.13" y="10.13" width="257.41" height="257.41" rx="12.3" fill="#009ee2" stroke="#1d1d1b" stroke-miterlimit="10"/><path d="M138.84,33a95.24,95.24,0,0,0-24.46,187.3l24.46,24.46,24.46-24.46A95.24,95.24,0,0,0,138.84,33Zm0,21.17A31.77,31.77,0,1,1,107.07,85.9,31.72,31.72,0,0,1,138.84,54.13Zm0,151.41a76.24,76.24,0,0,1-63.53-34.09c.32-21.07,42.35-32.61,63.53-32.61s63.21,11.54,63.52,32.61A76.21,76.21,0,0,1,138.84,205.54Z" fill="#fff"/></g></g></svg>