<svg xmlns="http://www.w3.org/2000/svg" viewBox="0 0 239.92 236.04"><g id="Calque_2" data-name="Calque 2"><g id="Calque_1-2" data-name="Calque 1"><rect width="239.92" height="236.04" rx="10.58" fill="#bd1622"/><rect x="8.35" y="8.22" width="223.22" height="219.61" rx="10.58" fill="#e5332a"/><path d="M56.35,192.23a21.26,21.26,0,0,0,21.2,21.2h84.82a21.26,21.26,0,0,0,21.2-21.2V65H56.35Zm26.08-75.48,14.95-15L120,124.27l22.47-22.47,14.95,15-22.47,22.47,22.47,22.48-14.95,14.94L120,154.17,97.48,176.64,82.54,161.7,105,139.22Zm74.63-83.54L146.46,22.6h-53L82.85,33.21H45.75v21.2H194.17V33.21Z" fill="#fff" stroke="#000" stroke-miterlimit="10"/></g></g></svg>