<svg xmlns="http://www.w3.org/2000/svg" viewBox="0 0 299.13 299.13"><g id="Calque_2" data-name="Calque 2"><g id="Calque_1-2" data-name="Calque 1"><rect width="299.13" height="299.13" rx="13.29" fill="#063"/><rect x="10.41" y="10.41" width="278.31" height="278.31" rx="13.29" fill="#008d36"/><path d="M84.82,182.76a64.69,64.69,0,0,0,129.37,0v-37H84.82ZM187.58,75.28,207,55.87l-7.58-7.67L178.15,69.55a63.66,63.66,0,0,0-28.65-6.93A63,63,0,0,0,121,69.55L99.6,48.2,92,55.87l19.41,19.41a64.27,64.27,0,0,0-26.61,52v9.24H214.19v-9.24A64.27,64.27,0,0,0,187.58,75.28Zm-65.8,42.79a9.25,9.25,0,1,1,9.24-9.24A9.27,9.27,0,0,1,121.78,118.07Zm55.45,0a9.25,9.25,0,1,1,9.24-9.24A9.27,9.27,0,0,1,177.23,118.07Z" fill="#fff"/></g></g></svg>