<svg xmlns="http://www.w3.org/2000/svg" viewBox="0 0 173.11 173.11"><g id="Calque_2" data-name="Calque 2"><g id="Calque_1-2" data-name="Calque 1"><rect width="173.11" height="173.11" rx="7.69" fill="#056734"/><rect x="6.03" y="6.03" width="161.06" height="161.06" rx="7.69" fill="#008e39"/><path d="M137.54,124H90a3.41,3.41,0,0,1-3.4-3.4v-68a3.41,3.41,0,0,1,3.4-3.4h47.59a3.4,3.4,0,0,1,3.4,3.4v68A3.4,3.4,0,0,1,137.54,124Z" fill="#eceff1"/><path d="M103.55,69.56H90a3.4,3.4,0,1,1,0-6.8h13.6a3.4,3.4,0,1,1,0,6.8Z" fill="#398e3d"/><path d="M103.55,83.16H90a3.4,3.4,0,0,1,0-6.8h13.6a3.4,3.4,0,1,1,0,6.8Z" fill="#398e3d"/><path d="M103.55,96.75H90A3.4,3.4,0,1,1,90,90h13.6a3.4,3.4,0,1,1,0,6.8Z" fill="#398e3d"/><path d="M103.55,110.35H90a3.4,3.4,0,0,1,0-6.8h13.6a3.4,3.4,0,0,1,0,6.8Z" fill="#398e3d"/><path d="M123.94,69.56h-6.79a3.4,3.4,0,0,1,0-6.8h6.79a3.4,3.4,0,1,1,0,6.8Z" fill="#398e3d"/><path d="M123.94,83.16h-6.79a3.4,3.4,0,0,1,0-6.8h6.79a3.4,3.4,0,0,1,0,6.8Z" fill="#398e3d"/><path d="M123.94,96.75h-6.79a3.4,3.4,0,0,1,0-6.8h6.79a3.4,3.4,0,1,1,0,6.8Z" fill="#398e3d"/><path d="M123.94,110.35h-6.79a3.4,3.4,0,0,1,0-6.8h6.79a3.4,3.4,0,1,1,0,6.8Z" fill="#398e3d"/><path d="M92.12,36.35a3.29,3.29,0,0,0-2.79-.72L34.94,45.83a3.39,3.39,0,0,0-2.77,3.33V124a3.38,3.38,0,0,0,2.77,3.33l54.39,10.2a3.18,3.18,0,0,0,.62.06,3.4,3.4,0,0,0,3.4-3.4V39A3.38,3.38,0,0,0,92.12,36.35Z" fill="#307e33"/><path d="M78.91,97.92,68.16,85.63,79,71.65a3.4,3.4,0,1,0-5.36-4.18l-10.07,13-8.48-9.7A3.4,3.4,0,1,0,50,75.2l9.35,10.68L49.88,98.07a3.4,3.4,0,0,0,5.37,4.17l8.66-11.15,9.89,11.29a3.35,3.35,0,0,0,2.56,1.17,3.4,3.4,0,0,0,2.55-5.63Z" fill="#fbfbfb"/></g></g></svg>