<svg xmlns="http://www.w3.org/2000/svg" viewBox="0 0 328.76 328.76"><g id="Calque_2" data-name="Calque 2"><g id="Calque_1-2" data-name="Calque 1"><rect width="328.76" height="328.76" rx="14.61" fill="#29265b"/><rect x="11.44" y="11.44" width="305.87" height="305.87" rx="14.61" fill="#2a3180"/><path d="M184.69,226.26H141.16c-.11-6.25-.17-10.07-.17-11.44q0-21.16,7-34.82t28-30.73q21-17.07,25.09-22.37a29.89,29.89,0,0,0,6.32-18.43q0-14-11.18-24t-30.13-10q-18.28,0-30.56,10.42t-16.91,31.75l-44-5.46q1.88-30.56,26-51.9T164,38q41.31,0,65.72,21.59t24.42,50.28a55.33,55.33,0,0,1-9,30.05q-9,14.18-38.33,38.58Q191.7,191.1,188,198.78T184.69,226.26ZM141.16,290.8v-48h48v48Z" fill="#fff"/></g></g></svg>