<svg xmlns="http://www.w3.org/2000/svg" viewBox="0 0 300.13 300.13"><g id="Calque_2" data-name="Calque 2"><g id="Calque_1-2" data-name="Calque 1"><rect x="0.5" y="0.5" width="299.13" height="299.13" rx="13.29" fill="#1d71b8" stroke="#1d1d1b" stroke-miterlimit="10"/><rect x="10.91" y="10.91" width="278.31" height="278.31" rx="13.29" fill="#009fe3" stroke="#1d1d1b" stroke-miterlimit="10"/><path d="M85.32,183.26a64.69,64.69,0,0,0,129.37,0v-37H85.32ZM188.08,75.78l19.41-19.41-7.58-7.67L178.65,70.05A63.66,63.66,0,0,0,150,63.12a63,63,0,0,0-28.55,6.93L100.1,48.7l-7.58,7.67,19.41,19.41a64.27,64.27,0,0,0-26.61,52v9.24H214.69v-9.24A64.27,64.27,0,0,0,188.08,75.78Zm-65.8,42.79a9.25,9.25,0,1,1,9.24-9.24A9.27,9.27,0,0,1,122.28,118.57Zm55.45,0a9.25,9.25,0,1,1,9.24-9.24A9.27,9.27,0,0,1,177.73,118.57Z" fill="#fff"/></g></g></svg>