<svg xmlns="http://www.w3.org/2000/svg" viewBox="0 0 174.11 174.11"><g id="Calque_2" data-name="Calque 2"><g id="Calque_1-2" data-name="Calque 1"><rect x="0.5" y="0.5" width="173.11" height="173.11" rx="7.69" fill="#1f71b8" stroke="#1e1e1c" stroke-miterlimit="10"/><rect x="6.53" y="6.53" width="161.06" height="161.06" rx="7.69" fill="#189cd9" stroke="#1e1e1c" stroke-miterlimit="10"/><path d="M123.45,59.17l-2.25-2.25L105.43,41.15h0l-1.28-1.28A3.11,3.11,0,0,0,102,39H53.82c-2,0-4.08,1.52-4.08,4.85v88c0,1.39,1.39,2.74,3,3.17l.26.07a4,4,0,0,0,.78.08h66.46a4.15,4.15,0,0,0,.79-.08l.25-.07c1.65-.43,3.05-1.78,3.05-3.17V62.14A3.83,3.83,0,0,0,123.45,59.17Zm-19-14.3,14,14h-14Zm-50.65,87a.89.89,0,0,1-.32-.08.75.75,0,0,1-.44-.69V107h68v24.1a.75.75,0,0,1-.44.69.89.89,0,0,1-.33.08Zm-.76-28.19V43.81c0-.36,0-1.53.76-1.53h47.43a2.32,2.32,0,0,0-.1.65V61.81a5,5,0,0,0-3.32-1.29,1.66,1.66,0,1,0,0,3.32,1.66,1.66,0,0,1,1.66,1.66v6.63a6.62,6.62,0,0,0,2.29,5,6.58,6.58,0,0,0-2.29,5v6.63a1.66,1.66,0,0,1-1.66,1.66,1.66,1.66,0,0,0,0,3.32,5,5,0,0,0,5-5V82.08a3.32,3.32,0,0,1,3.31-3.32,1.66,1.66,0,1,0,0-3.31,3.32,3.32,0,0,1-3.31-3.32V65.5a4.92,4.92,0,0,0-1.3-3.32H120.4a2.32,2.32,0,0,0,.65-.1v41.56Z" fill="#fff"/><path d="M66.08,124.25a1.83,1.83,0,0,1-.76,1.58,3.44,3.44,0,0,1-1.91.46,4.67,4.67,0,0,1-1-.11c-.37-.08-.72-.16-1-.26a9,9,0,0,1-.92-.32,2.87,2.87,0,0,1-.64-.33l-1.16,1.84a5,5,0,0,0,1.11.61c.44.18.9.35,1.37.49a11,11,0,0,0,1.39.32,7.46,7.46,0,0,0,1.16.1,9.46,9.46,0,0,0,1.94-.19,4.7,4.7,0,0,0,1.67-.68,3.7,3.7,0,0,0,1.16-1.29,4.27,4.27,0,0,0,.43-2v-13H66.08Z" fill="#fff"/><path d="M80.56,120.33a8.78,8.78,0,0,0-1.69-1c-.61-.27-1.17-.54-1.68-.82a4.82,4.82,0,0,1-1.29-1,2,2,0,0,1-.52-1.46,1.87,1.87,0,0,1,.18-.76,2.29,2.29,0,0,1,.5-.71,2.91,2.91,0,0,1,.72-.53,2.25,2.25,0,0,1,.87-.26,7.73,7.73,0,0,1,1.33,0,3.21,3.21,0,0,1,.84.16,2.27,2.27,0,0,1,.49.23l.31.18s.06-.09.13-.23a5.56,5.56,0,0,0,.27-.51c.11-.2.22-.42.34-.66s.23-.44.32-.64a4.62,4.62,0,0,0-1.72-.63,12.73,12.73,0,0,0-2.11-.19,5.94,5.94,0,0,0-1.94.32,4.83,4.83,0,0,0-1.61.92,4.33,4.33,0,0,0-1.1,1.46,4.59,4.59,0,0,0-.41,2,3.68,3.68,0,0,0,.52,2,5.4,5.4,0,0,0,1.32,1.42,9.79,9.79,0,0,0,1.7,1c.6.3,1.16.59,1.69.89a5.6,5.6,0,0,1,1.3,1,1.83,1.83,0,0,1,.52,1.32,2.37,2.37,0,0,1-.74,1.91,3.1,3.1,0,0,1-2.11.65,5.76,5.76,0,0,1-1-.09,9.75,9.75,0,0,1-1-.24c-.35-.1-.69-.2-1-.32a4.89,4.89,0,0,1-.81-.35l-.47,2a3.52,3.52,0,0,0,.92.58,5.68,5.68,0,0,0,1.12.38,9.5,9.5,0,0,0,1.17.19,10.73,10.73,0,0,0,1.12,0,6.21,6.21,0,0,0,2.27-.38,5.23,5.23,0,0,0,1.68-1,4.62,4.62,0,0,0,1.05-1.5,4.28,4.28,0,0,0,.37-1.76,4.07,4.07,0,0,0-.52-2.18A4.78,4.78,0,0,0,80.56,120.33Z" fill="#fff"/><path d="M96.79,113.71a6.32,6.32,0,0,0-2.2-1.62,7.06,7.06,0,0,0-5.51,0,6.32,6.32,0,0,0-2.2,1.62,7.65,7.65,0,0,0-1.47,2.66,11.61,11.61,0,0,0-.53,3.71,11.76,11.76,0,0,0,.53,3.72,7.61,7.61,0,0,0,1.47,2.67,6.17,6.17,0,0,0,2.2,1.61,7.18,7.18,0,0,0,5.51,0,6.17,6.17,0,0,0,2.2-1.61,7.63,7.63,0,0,0,1.48-2.67,12.06,12.06,0,0,0,.53-3.72,11.9,11.9,0,0,0-.53-3.71A7.67,7.67,0,0,0,96.79,113.71ZM95.67,123a5.51,5.51,0,0,1-.94,2,3.62,3.62,0,0,1-1.36,1.08,4.16,4.16,0,0,1-1.6.33,3.49,3.49,0,0,1-1.55-.36,3.53,3.53,0,0,1-1.32-1.11,5.76,5.76,0,0,1-.91-2,11.92,11.92,0,0,1-.35-2.9,11.54,11.54,0,0,1,.37-3,5.51,5.51,0,0,1,.94-2,3.45,3.45,0,0,1,1.36-1.08,4.1,4.1,0,0,1,1.59-.31,3.62,3.62,0,0,1,1.56.34,3.32,3.32,0,0,1,1.31,1.11,5.75,5.75,0,0,1,.91,2,12.23,12.23,0,0,1,0,5.85Z" fill="#fff"/><polygon points="111.95 123.32 105.4 111.81 102.63 111.81 102.63 128.51 105.4 128.51 105.4 117 111.95 128.51 114.72 128.51 114.72 111.81 111.95 111.81 111.95 123.32" fill="#fff"/><path d="M73,72.13V65.5a1.66,1.66,0,0,1,1.66-1.66,1.66,1.66,0,0,0,0-3.32,5,5,0,0,0-5,5v6.63a3.32,3.32,0,0,1-3.32,3.32,1.66,1.66,0,1,0,0,3.31,3.32,3.32,0,0,1,3.32,3.32v6.63a5,5,0,0,0,5,5,1.66,1.66,0,0,0,0-3.32A1.66,1.66,0,0,1,73,88.71V82.08a6.55,6.55,0,0,0-2.3-5A6.59,6.59,0,0,0,73,72.13Z" fill="#fff"/><circle cx="86.22" cy="71.3" r="2.49" fill="#fff"/><path d="M86.22,80.42a1.65,1.65,0,0,0-1.65,1.66v5a1.66,1.66,0,0,0,3.31,0v-5A1.66,1.66,0,0,0,86.22,80.42Z" fill="#fff"/></g></g></svg>