<svg xmlns="http://www.w3.org/2000/svg" viewBox="0 0 325.76 325.76"><g id="Calque_2" data-name="Calque 2"><g id="Calque_1-2" data-name="Calque 1"><rect width="325.76" height="325.76" rx="14.48" fill="#6f6f6e"/><rect x="11.34" y="11.34" width="303.09" height="303.09" rx="14.48" fill="#9c9b9b"/><path d="M252.38,174.66a88.83,88.83,0,0,0,.75-11.78,72,72,0,0,0-.88-11.78l25.45-19.8a6.16,6.16,0,0,0,1.5-7.65L255.14,82a6.13,6.13,0,0,0-7.4-2.76l-30,12a88.64,88.64,0,0,0-20.3-11.78L193,47.69a6.05,6.05,0,0,0-6-5.14H138.82a5.93,5.93,0,0,0-5.89,5.14l-4.52,31.84a90.51,90.51,0,0,0-20.3,11.78l-30-12A6,6,0,0,0,70.75,82L46.81,123.65a5.71,5.71,0,0,0,1.51,7.65l25.44,19.8a69.55,69.55,0,0,0-.25,23.56L48.07,194.47a6.14,6.14,0,0,0-1.51,7.64l24.07,41.62A6.12,6.12,0,0,0,78,246.49l30-12a88.37,88.37,0,0,0,20.31,11.79l4.51,31.83a6.17,6.17,0,0,0,6,5.14H187a5.85,5.85,0,0,0,5.89-5.14l4.51-31.83a85.72,85.72,0,0,0,20.31-11.79l30,12a6,6,0,0,0,7.4-2.76l24.07-41.62a5.8,5.8,0,0,0-1.51-7.64ZM162.88,208A45.13,45.13,0,1,1,208,162.88,45.26,45.26,0,0,1,162.88,208Z" fill="#fff"/></g></g></svg>